<?xml version="1.0" standalone="no"?>
<!DOCTYPE svg PUBLIC "-//W3C//DTD SVG 20010904//EN"
 "http://www.w3.org/TR/2001/REC-SVG-20010904/DTD/svg10.dtd">
<svg version="1.0" xmlns="http://www.w3.org/2000/svg"
 width="512.000000pt" height="512.000000pt" viewBox="0 0 512.000000 512.000000"
 preserveAspectRatio="xMidYMid meet">
<metadata>
Created by potrace 1.16, written by Peter Selinger 2001-2019
</metadata>
<g transform="translate(0.000000,512.000000) scale(0.100000,-0.100000)"
fill="#000000" stroke="none">
<path d="M2562 4937 c-15 -8 -124 -189 -313 -522 -159 -280 -292 -519 -295
-532 -4 -15 2 -30 20 -47 l25 -26 190 0 191 0 -52 -103 -51 -104 -91 -17
c-219 -41 -507 -163 -721 -305 l-100 -66 -24 95 c-66 272 -228 599 -401 810
-149 182 -323 327 -505 418 -87 43 -249 93 -326 99 -65 6 -67 5 -85 -23 -17
-26 -19 -51 -19 -289 1 -277 6 -324 61 -539 91 -355 261 -672 490 -915 70 -75
209 -196 252 -220 14 -8 13 -14 -9 -48 -115 -174 -214 -422 -254 -638 -21
-110 -24 -321 -6 -425 80 -458 423 -874 925 -1119 248 -122 504 -196 801 -232
129 -15 461 -15 590 0 838 102 1494 566 1688 1196 72 232 68 494 -10 755 -46
154 -132 343 -212 463 -23 36 -24 40 -8 49 44 24 172 136 247 215 267 282 449
653 533 1087 18 95 21 148 22 371 0 238 -2 263 -19 289 -18 28 -20 29 -85 23
-127 -11 -310 -81 -456 -175 -356 -229 -661 -682 -776 -1152 l-24 -95 -100 66
c-147 97 -339 192 -491 241 -73 24 -133 46 -134 50 0 4 114 109 254 234 153
136 256 236 258 249 7 33 -9 64 -37 75 -15 6 -109 10 -211 10 -101 0 -184 2
-184 5 0 3 123 153 273 333 326 391 317 380 317 404 0 10 -11 30 -25 43 l-24
25 -533 0 c-404 0 -539 -3 -556 -13z m927 -134 c-8 -9 -143 -172 -301 -362
-298 -357 -312 -378 -271 -412 12 -10 66 -15 208 -19 l192 -5 -224 -200 -225
-200 -47 2 c-163 5 -391 17 -391 20 0 2 25 53 56 114 62 125 67 164 24 186
-17 9 -80 13 -203 13 -101 0 -177 4 -175 9 2 5 113 203 248 440 l245 431 439
0 c409 0 438 -1 425 -17z m-2604 -818 c175 -239 300 -523 360 -820 31 -153 32
-154 62 -161 36 -10 73 11 73 40 0 18 15 36 58 69 236 181 563 320 867 369
103 16 407 16 510 0 248 -40 514 -140 729 -274 130 -81 196 -136 196 -162 0
-30 18 -46 51 -46 36 0 57 22 65 68 18 109 60 277 90 366 71 208 209 456 344
621 103 125 97 127 102 -27 6 -151 27 -223 82 -285 49 -57 96 -72 258 -84 79
-6 144 -12 146 -14 7 -7 -54 -150 -118 -273 -160 -311 -342 -506 -651 -697
-39 -24 -51 -54 -35 -86 13 -28 68 -38 93 -17 23 19 51 -21 133 -187 121 -245
164 -413 164 -645 0 -153 -9 -214 -51 -345 -137 -426 -540 -789 -1073 -968
-1088 -365 -2353 100 -2633 968 -42 131 -51 192 -51 345 0 232 43 400 164 645
79 161 112 207 131 188 17 -17 60 -16 83 0 22 16 24 60 5 83 -7 8 -33 26 -58
39 -181 92 -399 307 -536 526 -84 135 -216 412 -203 424 2 2 67 8 146 14 162
12 209 27 258 84 55 62 75 134 82 287 l5 134 50 -54 c28 -30 74 -86 102 -125z"/>
<path d="M1485 2677 c-109 -37 -195 -112 -242 -212 -24 -52 -28 -72 -28 -155
0 -86 3 -101 31 -160 39 -83 101 -145 184 -184 59 -28 74 -31 160 -31 86 0
101 3 160 31 83 39 145 101 184 184 28 59 31 74 31 160 0 83 -4 103 -28 156
-36 78 -113 155 -192 190 -71 33 -194 42 -260 21z m-2 -219 c24 -28 21 -65 -8
-93 -30 -30 -54 -31 -89 -4 -44 35 -31 102 24 122 23 8 53 -2 73 -25z"/>
<path d="M3425 2677 c-109 -37 -195 -112 -242 -212 -24 -52 -28 -72 -28 -155
0 -86 3 -101 31 -160 39 -83 101 -145 184 -184 59 -28 74 -31 160 -31 86 0
101 3 160 31 83 39 145 101 184 184 28 59 31 74 31 160 0 83 -4 103 -28 156
-36 78 -113 155 -192 190 -71 33 -194 42 -260 21z m-2 -219 c26 -30 22 -73 -9
-97 -15 -12 -34 -21 -44 -21 -33 0 -70 39 -70 74 0 68 78 95 123 44z"/>
<path d="M2383 2080 c-12 -5 -27 -19 -33 -31 -20 -36 2 -65 81 -104 l71 -36
-4 -55 c-7 -79 -36 -107 -120 -112 -87 -4 -120 17 -142 92 -13 44 -22 57 -41
62 -60 15 -90 -24 -74 -96 19 -83 53 -124 129 -159 83 -38 231 -22 287 31 l22
21 31 -26 c83 -70 265 -61 348 16 30 28 49 64 61 117 12 53 0 87 -33 96 -46
11 -65 -3 -82 -62 -22 -75 -55 -96 -142 -92 -84 5 -113 33 -120 112 l-4 55 71
36 c79 39 101 68 81 104 -6 12 -22 26 -36 31 -31 12 -321 12 -351 0z"/>
<path d="M1205 1856 c-101 -46 -155 -127 -163 -241 -6 -93 21 -158 90 -220
148 -133 378 -75 448 111 53 140 -27 310 -167 358 -68 23 -148 20 -208 -8z"/>
<path d="M3703 1864 c-95 -34 -166 -131 -179 -245 -16 -142 101 -277 254 -296
112 -13 235 61 282 169 28 66 25 170 -8 234 -65 126 -214 185 -349 138z"/>
</g>
</svg>
